<?xml version="1.0" ?><svg height="40mm" id="svg8" version="1.1" viewBox="0 0 40 40" width="40mm" xmlns="http://www.w3.org/2000/svg" xmlns:cc="http://creativecommons.org/ns#" xmlns:dc="http://purl.org/dc/elements/1.1/" xmlns:inkscape="http://www.inkscape.org/namespaces/inkscape" xmlns:rdf="http://www.w3.org/1999/02/22-rdf-syntax-ns#" xmlns:sodipodi="http://sodipodi.sourceforge.net/DTD/sodipodi-0.dtd" xmlns:svg="http://www.w3.org/2000/svg"><defs id="defs2"/><g id="layer1" transform="translate(0,-257)"><g id="g5966" transform="translate(-72.212014,150.24977)"><path d="m 97.654275,109.46322 c -3.348019,0.002 -6.176272,2.26814 -7.101562,5.42579 -1.03696,-0.87643 -2.296369,-1.45506 -3.669919,-1.45703 -3.031342,0 -5.456571,2.36646 -5.701181,5.33593 -3.30083,0.12283 -5.94922,2.79396 -5.94922,6.12501 0,3.40937 2.760621,6.16992 6.16993,6.16992 h 22.677737 c 3.4093,0 6.16992,-2.76055 6.16992,-6.16992 0,-3.14737 -2.38116,-5.6575 -5.42578,-6.03712 0.16659,-0.62269 0.32009,-1.25232 0.32227,-1.89843 0,-6.6e-4 0,-10e-4 0,-0.002 1.8e-4,-4.13235 -3.35984,-7.49236 -7.492195,-7.49219 z" id="rect4666-8-4-9" style="color:#000000;font-style:normal;font-variant:normal;font-weight:normal;font-stretch:normal;font-size:medium;line-height:normal;font-family:sans-serif;font-variant-ligatures:normal;font-variant-position:normal;font-variant-caps:normal;font-variant-numeric:normal;font-variant-alternates:normal;font-feature-settings:normal;text-indent:0;text-align:start;text-decoration:none;text-decoration-line:none;text-decoration-style:solid;text-decoration-color:#000000;letter-spacing:normal;word-spacing:normal;text-transform:none;writing-mode:lr-tb;direction:ltr;text-orientation:mixed;dominant-baseline:auto;baseline-shift:baseline;text-anchor:start;white-space:normal;shape-padding:0;clip-rule:nonzero;display:inline;overflow:visible;visibility:visible;opacity:1;isolation:auto;mix-blend-mode:normal;color-interpolation:sRGB;color-interpolation-filters:linearRGB;solid-color:#000000;solid-opacity:1;vector-effect:none;fill:#6f6f6f;fill-opacity:1;fill-rule:nonzero;stroke:none;stroke-width:1;stroke-linecap:round;stroke-linejoin:round;stroke-miterlimit:4;stroke-dasharray:none;stroke-dashoffset:15;stroke-opacity:1;color-rendering:auto;image-rendering:auto;shape-rendering:auto;text-rendering:auto;enable-background:accumulate"/><path d="m 82.278152,133.50729 a 0.40004,0.40004 0 0 0 -0.328139,0.60565 l 0.83457,1.44539 h -1.668629 a 0.40039499,0.40039499 0 0 0 0,0.80047 h 1.669669 l -0.83561,1.44745 a 0.40004,0.40004 0 1 0 0.692981,0.39843 l 0.835089,-1.44591 0.835091,1.44591 a 0.40004,0.40004 0 1 0 0.693499,-0.39843 l -0.836131,-1.44745 h 1.669672 a 0.40039499,0.40039499 0 0 0 0,-0.80047 h -1.668632 l 0.835091,-1.44539 a 0.40004,0.40004 0 0 0 -0.340029,-0.60565 0.40004,0.40004 0 0 0 -0.35347,0.20515 l -0.835091,1.44643 -0.835089,-1.44643 a 0.40004,0.40004 0 0 0 -0.364842,-0.20515 z" id="path4555-5-2-6-2-7-9-7" style="color:#000000;font-style:normal;font-variant:normal;font-weight:normal;font-stretch:normal;font-size:medium;line-height:normal;font-family:sans-serif;font-variant-ligatures:normal;font-variant-position:normal;font-variant-caps:normal;font-variant-numeric:normal;font-variant-alternates:normal;font-feature-settings:normal;text-indent:0;text-align:start;text-decoration:none;text-decoration-line:none;text-decoration-style:solid;text-decoration-color:#000000;letter-spacing:normal;word-spacing:normal;text-transform:none;writing-mode:lr-tb;direction:ltr;text-orientation:mixed;dominant-baseline:auto;baseline-shift:baseline;text-anchor:start;white-space:normal;shape-padding:0;clip-rule:nonzero;display:inline;overflow:visible;visibility:visible;opacity:1;isolation:auto;mix-blend-mode:normal;color-interpolation:sRGB;color-interpolation-filters:linearRGB;solid-color:#000000;solid-opacity:1;vector-effect:none;fill:#6f6f6f;fill-opacity:1;fill-rule:evenodd;stroke:none;stroke-width:0.80000001;stroke-linecap:round;stroke-linejoin:miter;stroke-miterlimit:4;stroke-dasharray:none;stroke-dashoffset:0;stroke-opacity:1;color-rendering:auto;image-rendering:auto;shape-rendering:auto;text-rendering:auto;enable-background:accumulate"/><path d="m 93.928095,139.1209 a 0.40004,0.40004 0 0 0 -0.35347,0.20516 l -0.834572,1.44642 -0.8351,-1.44642 a 0.40004,0.40004 0 0 0 -0.36328,-0.20361 0.40004,0.40004 0 0 0 -0.32815,0.60358 l 0.834581,1.44746 h -1.670701 a 0.40004,0.40004 0 0 0 -0.0388,0 0.40004,0.40004 0 0 0 0.0388,0.79892 h 1.670701 l -0.834581,1.44694 a 0.40004,0.40004 0 1 0 0.69143,0.40049 l 0.8351,-1.44694 0.834572,1.44694 a 0.400417,0.400417 0 1 0 0.693499,-0.40049 l -0.835609,-1.44694 h 1.67173 a 0.40004,0.40004 0 1 0 0,-0.79892 h -1.67173 l 0.835609,-1.44746 a 0.40004,0.40004 0 0 0 -0.340029,-0.60513 z" id="path4555-5-2-6-4-2-9-2-7" style="color:#000000;font-style:normal;font-variant:normal;font-weight:normal;font-stretch:normal;font-size:medium;line-height:normal;font-family:sans-serif;font-variant-ligatures:normal;font-variant-position:normal;font-variant-caps:normal;font-variant-numeric:normal;font-variant-alternates:normal;font-feature-settings:normal;text-indent:0;text-align:start;text-decoration:none;text-decoration-line:none;text-decoration-style:solid;text-decoration-color:#000000;letter-spacing:normal;word-spacing:normal;text-transform:none;writing-mode:lr-tb;direction:ltr;text-orientation:mixed;dominant-baseline:auto;baseline-shift:baseline;text-anchor:start;white-space:normal;shape-padding:0;clip-rule:nonzero;display:inline;overflow:visible;visibility:visible;opacity:1;isolation:auto;mix-blend-mode:normal;color-interpolation:sRGB;color-interpolation-filters:linearRGB;solid-color:#000000;solid-opacity:1;vector-effect:none;fill:#6f6f6f;fill-opacity:1;fill-rule:evenodd;stroke:none;stroke-width:0.80000001;stroke-linecap:round;stroke-linejoin:miter;stroke-miterlimit:4;stroke-dasharray:none;stroke-dashoffset:0;stroke-opacity:1;color-rendering:auto;image-rendering:auto;shape-rendering:auto;text-rendering:auto;enable-background:accumulate"/><path d="m 100.80313,134.60128 a 0.40004,0.40004 0 0 0 -0.32816,0.60565 l 0.83459,1.44487 h -1.668124 a 0.40049185,0.40049185 0 0 0 0,0.80098 h 1.668124 l -0.83459,1.44539 a 0.40042364,0.40042364 0 1 0 0.69351,0.4005 l 0.8351,-1.44591 0.83509,1.44591 a 0.4003312,0.4003312 0 1 0 0.69298,-0.4005 l -0.83457,-1.44539 h 1.66863 a 0.40049185,0.40049185 0 1 0 0,-0.80098 h -1.66863 l 0.83457,-1.44487 a 0.40004,0.40004 0 0 0 -0.33952,-0.60565 0.40004,0.40004 0 0 0 -0.35346,0.20516 l -0.83509,1.4459 -0.8351,-1.4459 a 0.40004,0.40004 0 0 0 -0.36535,-0.20516 z" id="path4555-5-2-6-9-9-2-0-6" style="color:#000000;font-style:normal;font-variant:normal;font-weight:normal;font-stretch:normal;font-size:medium;line-height:normal;font-family:sans-serif;font-variant-ligatures:normal;font-variant-position:normal;font-variant-caps:normal;font-variant-numeric:normal;font-variant-alternates:normal;font-feature-settings:normal;text-indent:0;text-align:start;text-decoration:none;text-decoration-line:none;text-decoration-style:solid;text-decoration-color:#000000;letter-spacing:normal;word-spacing:normal;text-transform:none;writing-mode:lr-tb;direction:ltr;text-orientation:mixed;dominant-baseline:auto;baseline-shift:baseline;text-anchor:start;white-space:normal;shape-padding:0;clip-rule:nonzero;display:inline;overflow:visible;visibility:visible;opacity:1;isolation:auto;mix-blend-mode:normal;color-interpolation:sRGB;color-interpolation-filters:linearRGB;solid-color:#000000;solid-opacity:1;vector-effect:none;fill:#6f6f6f;fill-opacity:1;fill-rule:evenodd;stroke:none;stroke-width:0.80000001;stroke-linecap:round;stroke-linejoin:miter;stroke-miterlimit:4;stroke-dasharray:none;stroke-dashoffset:0;stroke-opacity:1;color-rendering:auto;image-rendering:auto;shape-rendering:auto;text-rendering:auto;enable-background:accumulate"/><path d="m 96.595922,109.46324 c -3.348015,0.002 -6.176272,2.26814 -7.101561,5.42579 -1.036961,-0.87643 -2.296366,-1.45506 -3.669922,-1.45703 -3.031332,0 -5.456567,2.36646 -5.701172,5.33593 -3.30083,0.12283 -5.949219,2.79396 -5.949219,6.125 0,3.40937 2.760614,6.16992 6.169922,6.16992 h 22.67773 c 3.40931,0 6.16992,-2.76055 6.16992,-6.16992 0,-3.14736 -2.38115,-5.65749 -5.42578,-6.03711 0.16659,-0.62269 0.32009,-1.25232 0.32227,-1.89843 0,-6.7e-4 0,-0.001 0,-0.002 1.8e-4,-4.13235 -3.35984,-7.49236 -7.492188,-7.49219 z" id="rect4666-8" style="color:#000000;font-style:normal;font-variant:normal;font-weight:normal;font-stretch:normal;font-size:medium;line-height:normal;font-family:sans-serif;font-variant-ligatures:normal;font-variant-position:normal;font-variant-caps:normal;font-variant-numeric:normal;font-variant-alternates:normal;font-feature-settings:normal;text-indent:0;text-align:start;text-decoration:none;text-decoration-line:none;text-decoration-style:solid;text-decoration-color:#000000;letter-spacing:normal;word-spacing:normal;text-transform:none;writing-mode:lr-tb;direction:ltr;text-orientation:mixed;dominant-baseline:auto;baseline-shift:baseline;text-anchor:start;white-space:normal;shape-padding:0;clip-rule:nonzero;display:inline;overflow:visible;visibility:visible;opacity:1;isolation:auto;mix-blend-mode:normal;color-interpolation:sRGB;color-interpolation-filters:linearRGB;solid-color:#000000;solid-opacity:1;vector-effect:none;fill:#ffffff;fill-opacity:1;fill-rule:nonzero;stroke:none;stroke-width:1;stroke-linecap:round;stroke-linejoin:round;stroke-miterlimit:4;stroke-dasharray:none;stroke-dashoffset:15;stroke-opacity:1;color-rendering:auto;image-rendering:auto;shape-rendering:auto;text-rendering:auto;enable-background:accumulate"/><path d="m 81.219806,133.5073 a 0.40003999,0.40003999 0 0 0 -0.328146,0.60565 l 0.834575,1.44539 h -1.668632 a 0.40039499,0.40039499 0 0 0 0,0.80047 h 1.669666 l -0.835609,1.44745 a 0.40003999,0.40003999 0 1 0 0.692983,0.39843 l 0.835091,-1.44591 0.835091,1.44591 a 0.40003999,0.40003999 0 1 0 0.693497,-0.39843 l -0.836126,-1.44745 h 1.669667 a 0.40039499,0.40039499 0 0 0 0,-0.80047 h -1.668632 l 0.835091,-1.44539 a 0.40003999,0.40003999 0 0 0 -0.340032,-0.60565 0.40003999,0.40003999 0 0 0 -0.353465,0.20515 l -0.835091,1.44643 -0.835091,-1.44643 a 0.40003999,0.40003999 0 0 0 -0.364837,-0.20515 z" id="path4555-5-2-6-2-7" style="color:#000000;font-style:normal;font-variant:normal;font-weight:normal;font-stretch:normal;font-size:medium;line-height:normal;font-family:sans-serif;font-variant-ligatures:normal;font-variant-position:normal;font-variant-caps:normal;font-variant-numeric:normal;font-variant-alternates:normal;font-feature-settings:normal;text-indent:0;text-align:start;text-decoration:none;text-decoration-line:none;text-decoration-style:solid;text-decoration-color:#000000;letter-spacing:normal;word-spacing:normal;text-transform:none;writing-mode:lr-tb;direction:ltr;text-orientation:mixed;dominant-baseline:auto;baseline-shift:baseline;text-anchor:start;white-space:normal;shape-padding:0;clip-rule:nonzero;display:inline;overflow:visible;visibility:visible;opacity:1;isolation:auto;mix-blend-mode:normal;color-interpolation:sRGB;color-interpolation-filters:linearRGB;solid-color:#000000;solid-opacity:1;vector-effect:none;fill:#7ce1ff;fill-opacity:1;fill-rule:evenodd;stroke:none;stroke-width:0.80000001;stroke-linecap:round;stroke-linejoin:miter;stroke-miterlimit:4;stroke-dasharray:none;stroke-dashoffset:0;stroke-opacity:1;color-rendering:auto;image-rendering:auto;shape-rendering:auto;text-rendering:auto;enable-background:accumulate"/><path d="m 92.869741,139.12091 a 0.40003999,0.40003999 0 0 0 -0.353467,0.20516 l -0.834573,1.44642 -0.835094,-1.44642 a 0.40003999,0.40003999 0 0 0 -0.363283,-0.20361 0.40003999,0.40003999 0 0 0 -0.328147,0.60358 l 0.834575,1.44746 h -1.670698 a 0.40003999,0.40003999 0 0 0 -0.03876,0 0.40003999,0.40003999 0 0 0 0.03876,0.79892 h 1.670698 l -0.834575,1.44694 a 0.40003999,0.40003999 0 1 0 0.69143,0.40049 l 0.835094,-1.44694 0.834573,1.44694 a 0.400417,0.400417 0 1 0 0.693499,-0.40049 l -0.83561,-1.44694 h 1.671733 a 0.40003999,0.40003999 0 1 0 0,-0.79892 h -1.671733 l 0.83561,-1.44746 a 0.40003999,0.40003999 0 0 0 -0.340032,-0.60513 z" id="path4555-5-2-6-4-2-9" style="color:#000000;font-style:normal;font-variant:normal;font-weight:normal;font-stretch:normal;font-size:medium;line-height:normal;font-family:sans-serif;font-variant-ligatures:normal;font-variant-position:normal;font-variant-caps:normal;font-variant-numeric:normal;font-variant-alternates:normal;font-feature-settings:normal;text-indent:0;text-align:start;text-decoration:none;text-decoration-line:none;text-decoration-style:solid;text-decoration-color:#000000;letter-spacing:normal;word-spacing:normal;text-transform:none;writing-mode:lr-tb;direction:ltr;text-orientation:mixed;dominant-baseline:auto;baseline-shift:baseline;text-anchor:start;white-space:normal;shape-padding:0;clip-rule:nonzero;display:inline;overflow:visible;visibility:visible;opacity:1;isolation:auto;mix-blend-mode:normal;color-interpolation:sRGB;color-interpolation-filters:linearRGB;solid-color:#000000;solid-opacity:1;vector-effect:none;fill:#7ce1ff;fill-opacity:1;fill-rule:evenodd;stroke:none;stroke-width:0.80000001;stroke-linecap:round;stroke-linejoin:miter;stroke-miterlimit:4;stroke-dasharray:none;stroke-dashoffset:0;stroke-opacity:1;color-rendering:auto;image-rendering:auto;shape-rendering:auto;text-rendering:auto;enable-background:accumulate"/><path d="m 99.744772,134.60129 a 0.40003999,0.40003999 0 0 0 -0.328144,0.60565 l 0.834572,1.44487 h -1.668113 a 0.40049185,0.40049185 0 0 0 0,0.80098 h 1.668113 l -0.834572,1.44539 a 0.40041586,0.40041586 0 1 0 0.693492,0.4005 l 0.8351,-1.44591 0.83509,1.44591 a 0.40033119,0.40033119 0 1 0 0.69298,-0.4005 l -0.83457,-1.44539 h 1.66863 a 0.40049185,0.40049185 0 1 0 0,-0.80098 h -1.66863 l 0.83457,-1.44487 a 0.40003999,0.40003999 0 0 0 -0.33952,-0.60565 0.40003999,0.40003999 0 0 0 -0.35346,0.20516 l -0.83509,1.4459 -0.8351,-1.4459 a 0.40003999,0.40003999 0 0 0 -0.365348,-0.20516 z" id="path4555-5-2-6-9-9-2" style="color:#000000;font-style:normal;font-variant:normal;font-weight:normal;font-stretch:normal;font-size:medium;line-height:normal;font-family:sans-serif;font-variant-ligatures:normal;font-variant-position:normal;font-variant-caps:normal;font-variant-numeric:normal;font-variant-alternates:normal;font-feature-settings:normal;text-indent:0;text-align:start;text-decoration:none;text-decoration-line:none;text-decoration-style:solid;text-decoration-color:#000000;letter-spacing:normal;word-spacing:normal;text-transform:none;writing-mode:lr-tb;direction:ltr;text-orientation:mixed;dominant-baseline:auto;baseline-shift:baseline;text-anchor:start;white-space:normal;shape-padding:0;clip-rule:nonzero;display:inline;overflow:visible;visibility:visible;opacity:1;isolation:auto;mix-blend-mode:normal;color-interpolation:sRGB;color-interpolation-filters:linearRGB;solid-color:#000000;solid-opacity:1;vector-effect:none;fill:#7ce1ff;fill-opacity:1;fill-rule:evenodd;stroke:none;stroke-width:0.80000001;stroke-linecap:round;stroke-linejoin:miter;stroke-miterlimit:4;stroke-dasharray:none;stroke-dashoffset:0;stroke-opacity:1;color-rendering:auto;image-rendering:auto;shape-rendering:auto;text-rendering:auto;enable-background:accumulate"/></g></g></svg>